<?xml version="1.0" encoding="utf-8"?>
<!-- Generator: Adobe Illustrator 19.2.0, SVG Export Plug-In . SVG Version: 6.00 Build 0)  -->
<svg version="1.1" id="Layer_1" xmlns="http://www.w3.org/2000/svg" xmlns:xlink="http://www.w3.org/1999/xlink" x="0px" y="0px"
	 viewBox="0 0 64 64" style="enable-background:new 0 0 64 64;" xml:space="preserve">
<style type="text/css">
	.st0{fill:#FFFFFF;}
</style>
<g>
	<path class="st0" d="M63.9,31.3C63.8,31,54.5,8,32,8C9.5,8,0.2,31,0.1,31.3c-0.2,0.5-0.2,1,0,1.5C0.2,33,9.5,56,32,56
		c22.5,0,31.8-23,31.9-23.3C64,32.3,64,31.7,63.9,31.3z M32,52C14.1,52,5.8,35.7,4.2,32c1.7-3.7,9.9-20,27.8-20s26.2,16.3,27.8,20
		C58.2,35.7,49.9,52,32,52z"/>
	<path class="st0" d="M32,20c-6.6,0-12,5.4-12,12s5.4,12,12,12s12-5.4,12-12S38.6,20,32,20z M32,40c-4.4,0-8-3.6-8-8s3.6-8,8-8
		s8,3.6,8,8S36.4,40,32,40z"/>
</g>
</svg>
