<?xml version="1.0" encoding="utf-8"?>
<!-- Generator: Adobe Illustrator 19.2.0, SVG Export Plug-In . SVG Version: 6.00 Build 0)  -->
<svg version="1.1" id="Layer_1" xmlns="http://www.w3.org/2000/svg" xmlns:xlink="http://www.w3.org/1999/xlink" x="0px" y="0px"
	 viewBox="0 0 64 64" style="enable-background:new 0 0 64 64;" xml:space="preserve">
<style type="text/css">
	.st0{fill:#FFFFFF;}
</style>
<path class="st0" d="M63.4,30.6c0,0-20-20-20-20l-10-10C33,0.2,32.5,0,32,0s-1,0.2-1.4,0.6L22,10V6c0-1.1-0.9-2-2-2h-8
	c-1.1,0-2,0.9-2,2v16L0.6,32c-0.8,0.8-0.7,2,0,2.8c0.8,0.8,1.9,0.9,2.7,0.1L6,32v28c0,2.2,1.8,4,4,4h44c2.2,0,4-1.8,4-4V30.8
	l2.6,2.6c0.8,0.8,2,0.7,2.8-0.1C64.2,32.6,64.2,31.3,63.4,30.6z M18,8v6l-4,4V8H18z M36,60h-8V44h8V60z M54,58c0,1.1-0.9,2-2,2H40
	V42c0-1.1-0.9-2-2-2H26c-1.1,0-2,0.9-2,2v18H12c-1.1,0-2-0.9-2-2V28L32,4.8l22,22V58z"/>
</svg>
