<?xml version="1.0" encoding="utf-8"?>
<!-- Generator: Adobe Illustrator 19.2.0, SVG Export Plug-In . SVG Version: 6.00 Build 0)  -->
<svg version="1.1" id="Layer_1" xmlns="http://www.w3.org/2000/svg" xmlns:xlink="http://www.w3.org/1999/xlink" x="0px" y="0px"
	 viewBox="0 0 64 64" style="enable-background:new 0 0 64 64;" xml:space="preserve">
<style type="text/css">
	.st0{fill:#FFFFFF;}
</style>
<g>
	<path class="st0" d="M32,0C14.3,0,0,14.3,0,32s14.3,32,32,32s32-14.3,32-32S49.7,0,32,0z M49.9,28.8c-0.9-2.1-2.7-2.8-4-3.4
		c-1.2-0.5-1.6-0.8-1.8-1.3c-0.7-2.2,0.8-3.9,4.2-6.6c1.9-1.5,3.5-1.9,6-2.2c2,2.6,3.5,5.6,4.4,8.8c-0.1,0.1-0.2,0.1-0.3,0.2
		c-1.1,0.8-2.3,1.7-3.4,3.3c-1.1,1.8-1.2,3.8-1.2,5.3c0,2.2-0.2,2.4-0.7,2.6c-1.6,0.6-2.8,0.4-3.7-0.5c-0.1-0.1-0.1-0.5,0.3-1.5
		C50.2,32.3,50.7,30.6,49.9,28.8z M4.1,33.1c1.8,0.2,4.3,0.6,5.1,0.9c0.1,0,0.2,0.1,0.3,0.2c0.4,0.3,1,0.7,2,0.9c0.2,0,0.4,0,0.7,0
		c1.5,0,6.3-0.7,7.9-2.3c0.6-0.6,0.9-1.3,1-1.9c0.1,0.1,0.1,0.2,0.2,0.4c0.3,0.7,0.9,1.8,2.3,2.4c1.4,0.5,2.9,0,3.7-0.4
		c0.2-0.1,0.5-0.3,0.5-0.3c0.5,0.2,0.7,0.4,1.3,1.2l0.2,0.3c0.1,0.1,0.2,0.5,0.2,0.9c0.1,0.9,0.4,2.6,2.2,3.5
		c0.8,0.4,2.1,0.4,3.6,0.2c0.5-0.1,1-0.1,1.4-0.2c0.5,0.2,1,0.8,1.2,1.3c0,0.1,0.1,0.3,0,0.4c-0.4,0.1-1.2,0.2-1.7,0.2
		c-1.3,0.1-2.5,0.2-3.5,0.9c-1.6,1.1-3,2.1-3.9,4.4c-0.4,1.1-0.4,2.1-0.3,2.8c0,0.5,0.1,0.8,0,1c-0.6,1.4-1.1,2-2.2,2.3
		c-0.4,0.1-0.7,0-1.2-0.1c-0.5-0.1-1.2-0.3-1.9-0.3l-0.3,0c-1.1,0-1.8-0.1-3,0c-0.6,0-1.1,0.1-1.5,0.2c-0.3,0.1-0.6,0.1-1,0.1
		C16.7,52,16,52,15.4,52c-1.1,0-2.1-0.1-3.2-0.2C7.4,47,4.3,40.4,4.1,33.1z M32,60c-5.3,0-10.3-1.5-14.5-4.1c0.1,0,0.2,0,0.4,0
		c0.5-0.1,0.9-0.1,1.2-0.2c0.4-0.1,0.7-0.1,1.1-0.2c1-0.1,1.6,0,2.5,0l0.4,0c0.4,0,0.7,0.1,1.1,0.2c0.9,0.2,2.2,0.4,3.3,0.1
		c2.9-0.8,4-2.9,4.8-4.6c0.5-1.1,0.4-2.1,0.3-2.9c0-0.5-0.1-0.8,0-1c0.4-1.1,1-1.6,2.3-2.5c0.3-0.1,1.1-0.2,1.7-0.2
		c1.8-0.2,3.6-0.3,4.5-1.7c0.8-1.1,1-2.6,0.6-4c-0.5-1.7-1.8-3.2-3.4-3.9c-0.8-0.3-2-0.3-3.4-0.1C34.4,35,34,35,33.6,35
		c0-0.1-0.1-0.3-0.1-0.4c-0.1-0.8-0.3-1.8-1.1-2.8l-0.2-0.2c-0.7-0.9-1.5-1.9-3.2-2.5c-1.3-0.5-2.8,0.1-3.6,0.5
		c-0.1,0.1-0.3,0.2-0.5,0.2c-0.1-0.1-0.1-0.3-0.2-0.4c-0.3-0.7-0.9-1.8-2.2-2.3L22.4,27c-0.6-0.3-1.2-0.6-2.1-0.6
		c-0.5,0-0.9,0.1-1.4,0.3c-1.8,0.7-1.9,2.5-1.9,3.1c0,0.1,0,0.1,0,0.2c-0.9,0.5-3.7,1.1-5.1,1.1c-0.1,0-0.2-0.1-0.3-0.2
		c-0.3-0.2-0.9-0.6-1.6-0.8c-1-0.3-4-0.8-6-1C5.6,15,17.5,4,32,4c7.5,0,14.3,3,19.3,7.7c-1.8,0.4-3.5,1.1-5.4,2.6
		c-2.9,2.3-7.2,5.7-5.6,10.9c0.7,2.3,2.6,3.1,4,3.8c1.1,0.5,1.7,0.8,1.9,1.4c0.2,0.4,0,1-0.3,2c-0.4,1.4-1.1,3.5,0.7,5.5
		c1.3,1.3,3,2,4.9,2c1,0,2.1-0.2,3.2-0.6c3.2-1.2,3.3-4.3,3.3-6.3c0-1.3,0.1-2.5,0.6-3.3c0.3-0.5,0.7-0.9,1.2-1.3
		c0.2,1.2,0.3,2.4,0.3,3.6C60,47.5,47.5,60,32,60z"/>
	<path class="st0" d="M32.6,8.2c-0.2,0-0.5,0-0.7,0.1c-3.5,0.8-3.9,4-4.3,6.4c-0.1,0.7-0.2,1.3-0.4,2c-0.1,0.4-0.3,0.9-0.5,1.4
		c-0.6,1.3-1.7,3.9,0.5,5.7c0.8,0.6,1.7,1,2.7,1c1.5,0,2.8-0.7,4-1.4c3.1-1.7,3.6-4.6,4.1-7.2l0.1-0.5c0.3-1.8-0.9-4-2-5.3
		C35.4,9.4,34.1,8.2,32.6,8.2z M34.1,15.5c-0.4,2.4-0.7,3.6-2.1,4.4c-0.7,0.4-1.5,0.9-2,0.9c0.1-0.3,0.3-0.8,0.4-1.1
		c0.3-0.6,0.6-1.3,0.7-2c0.2-0.8,0.3-1.6,0.4-2.4c0.3-2,0.5-2.7,0.9-2.9c0.7,0.5,1.6,2,1.6,2.6L34.1,15.5z"/>
</g>
</svg>
