<?xml version="1.0" encoding="utf-8"?>
<!-- Generator: Adobe Illustrator 19.2.0, SVG Export Plug-In . SVG Version: 6.00 Build 0)  -->
<svg version="1.1" id="Layer_1" xmlns="http://www.w3.org/2000/svg" xmlns:xlink="http://www.w3.org/1999/xlink" x="0px" y="0px"
	 viewBox="0 0 120 100" style="enable-background:new 0 0 120 100;" xml:space="preserve">
<style type="text/css">
	.st0{fill:#FFFFFF;}
</style>
<g>
	<g>
		<path class="st0" d="M77,21h-6.5c-0.8,0-1.5-0.3-1.5-1.1v-6.5c0-0.8,0.7-1.5,1.5-1.5s1.5,0.7,1.5,1.5V18h5c0.8,0,1.5,0.7,1.5,1.5
			S77.8,21,77,21z"/>
	</g>
	<path class="st0" d="M81.5,45.9c-0.4,0-1.4,0.1-2.5,0.5c-0.3-3.6-3.3-6.5-7-6.5c-1.7,0-3.2,0.6-4.4,1.5c-0.9-2.7-3.2-4.5-6.1-4.5
		c-1.9,0-3.6,0.8-4.9,2.1l-0.3-8.6c1.2-0.9,2.3-2,3.1-3.2c2.4,3.4,6.5,5.7,11,5.7c7.4,0,13.5-6.1,13.5-13.5S77.9,5.9,70.5,5.9
		c-4.5,0-8.6,2.3-11,5.7C57,8.1,53,5.9,48.5,5.9C41,5.9,35,11.9,35,19.4c0,5.2,2.9,9.7,7.2,11.9l0.5,21.1c-0.8,0.4-2,1.2-3.6,2.7
		C33.6,60,31.8,72,38,81.2c6.8,10.3,14.8,14.7,26.7,14.7c12.6,0,16.9-6.3,20.1-12.8c3.1-6.2,3.2-30.2,3.2-31.2
		C88,48.7,84.9,45.9,81.5,45.9z M70.5,8.9c5.8,0,10.5,4.7,10.5,10.5s-4.7,10.5-10.5,10.5c-4.1,0-7.6-2.4-9.4-5.8
		c-0.7-1.4-1.1-3-1.1-4.7c0-1.7,0.4-3.3,1.1-4.7C62.8,11.2,66.4,8.9,70.5,8.9z M82.1,81.7c-3.1,6.1-6.5,11.2-17.4,11.2
		c-10.9,0-18-3.9-24.2-13.3c-3.7-5.5-5.2-16.9,0.6-22.2c0.6-0.6,1.2-1,1.7-1.4l0.2,10.5c0,0.8,0.7,1.5,1.5,1.5
		c0.8,0,1.5-0.7,1.5-1.5l-1-46c0-2.6,1.6-4.5,4-4.5s4,1.9,4,4.6l1,28c0,0.8,0.6,1.4,1.4,1.4c0.7,0,1.4-0.5,1.6-1.2l0.8-4.5
		c0-0.1,0-0.2,0-0.2c0-2.3,1.6-4,3.8-4c2.4,0,3.5,2.1,3.5,4v3c0,0.8,0.7,1.5,1.5,1.5s1.5-0.7,1.5-1.5c0-2.2,1.8-4,4-4s4,1.8,4,4v6.5
		c0,0.8,0.7,1.5,1.5,1.5s1.5-0.7,1.5-1.5v-3.8c0.6-0.3,1.8-0.7,2.5-0.7c1.8,0,3.5,1.5,3.5,3C85,58.6,84.5,77,82.1,81.7z"/>
</g>
</svg>
