<?xml version="1.0" encoding="utf-8"?>
<!-- Generator: Adobe Illustrator 19.2.0, SVG Export Plug-In . SVG Version: 6.00 Build 0)  -->
<svg version="1.1" id="Layer_1" xmlns="http://www.w3.org/2000/svg" xmlns:xlink="http://www.w3.org/1999/xlink" x="0px" y="0px"
	 viewBox="0 0 120 120" style="enable-background:new 0 0 120 120;" xml:space="preserve">
<style type="text/css">
	.st0{fill:#FFFFFF;}
</style>
<g>
	<path class="st0" d="M92.7,19.1c-1.5-2.6-3.2-5.1-4.9-7.6c-0.4-0.5-0.8-0.8-1.5-0.7c-0.7,0.1-0.9,0.6-1.1,1.2
		c-0.3,1.5-0.7,2.9-1,4.4c-18.2-4.2-37.3-3.6-55.3,1.9c-1.1,0.3-1.8,1.6-1.5,2.6c0.3,0.9,1.6,1.6,2.7,1.3
		c17.3-5.2,35.7-5.8,53.2-1.8c-0.3,1.1-0.5,2.3-0.8,3.4c-0.1,0.6-0.1,1.1,0.4,1.5s0.9,0.3,1.5,0c2.5-1.4,5.1-2.8,7.8-4
		C92.8,20.7,93.1,19.8,92.7,19.1z"/>
	<path class="st0" d="M81,67.4c-0.8-0.3-1.9-0.4-2.5-0.4c0.5-1.6,0.3-3.3-0.4-4.8c-0.8-1.7-2.2-3-3.9-3.6c-1.5-0.5-3.2-0.5-4.6,0
		c0-1-0.1-1.9-0.5-2.7c-0.7-1.7-2-3-3.8-3.6c-1.8-0.6-3.7-0.5-5.3,0.3l5.7-17.7c1.5-4-0.3-8.1-4-9.4c-0.8-0.3-1.6-0.4-2.4-0.4
		c-3,0-5.6,2-6.8,5.1L42.3,60.2c-0.9,0.1-2.3,0.5-4.3,1.3c-6.8,2.8-12.5,13.4-9.9,24.2c2.9,12,8.9,18.9,20.1,22.9
		c3.1,1.1,6.1,1.7,8.8,1.7c6.6,0,10.8-3.4,14.5-6.9c5.1-4.8,13.3-27.3,13.6-28.2C86.1,72.2,84.2,68.5,81,67.4z M82.2,74.2
		c-2.3,6.3-9.1,23.5-12.9,27.1c-3.4,3.2-6.9,6.1-12.4,6.1c-2.3,0-4.9-0.5-7.8-1.5C38.9,102.1,33.6,96,30.9,85
		c-1.6-6.4,0.9-17.7,8.2-20.7c0.8-0.3,1.5-0.6,2-0.7l-3.4,9.9c-0.3,0.8,0.2,1.6,0.9,1.9s1.6-0.2,1.9-0.9l14.8-43.5
		c0.9-2.4,3.1-3.7,5.3-2.9c2.2,0.8,3.1,3.1,2.2,5.6l-8.6,26.7c-0.2,0.7,0.1,1.5,0.8,1.8c0.7,0.3,1.5,0,1.9-0.6l2.3-4
		c0-0.1,0.1-0.1,0.1-0.2c0.8-2.1,2.9-3.2,4.9-2.5c1,0.3,1.6,1,2,1.9c0.4,0.9,0.3,2-0.1,3.1l-1,2.8c0,0,0,0,0,0
		c-0.3,0.8,0.1,1.6,0.9,1.9c0.8,0.3,1.6-0.1,1.9-0.9c0.6-1.6,2.1-2.6,3.8-2.6c0.5,0,0.9,0.1,1.4,0.2c1,0.4,1.8,1.1,2.3,2.1
		s0.5,2.1,0.1,3.1l-2.2,6.1c-0.3,0.8,0.1,1.6,0.9,1.9c0.8,0.3,1.6-0.1,1.9-0.9l1.3-3.6c0.2,0,0.4,0,0.7,0c0.7,0,1.5,0.1,1.9,0.2
		C81.7,70.8,82.8,72.7,82.2,74.2z"/>
</g>
</svg>
