<?xml version="1.0" encoding="utf-8"?>
<!-- Generator: Adobe Illustrator 19.2.0, SVG Export Plug-In . SVG Version: 6.00 Build 0)  -->
<svg version="1.1" id="Capa_1" xmlns="http://www.w3.org/2000/svg" xmlns:xlink="http://www.w3.org/1999/xlink" x="0px" y="0px"
	 viewBox="0 0 2048 1536" style="enable-background:new 0 0 2048 1536;" xml:space="preserve">
<style type="text/css">
	.st0{fill:#FFFFFF;}
	.st1{font-family:'Acme-Regular';}
	.st2{font-size:43px;}
	.st3{font-family:'MyriadPro-Regular';}
</style>
<text transform="matrix(1 0 0 1 142.5713 143.9955)" class="st0 st1 st2">A delicious smell floated past his nose. </text>
<text transform="matrix(1 0 0 1 142.5713 195.5955)" class="st0 st1 st2">It was coming from an alley near by;.</text>
<text transform="matrix(1 0 0 1 142.5713 247.1956)" class="st0 st1 st2">It seamed like someone was throwing away </text>
<text transform="matrix(1 0 0 1 142.5713 298.7955)" class="st0 st1 st2">some leftovers. </text>
<text transform="matrix(1 0 0 1 142.5713 401.9955)" class="st0 st1 st2">— It looks like I am having a feast tonigh! Look </text>
<text transform="matrix(1 0 0 1 142.5713 453.5955)" class="st0 st1 st2">how tender it seems to be</text>
<text transform="matrix(1 0 0 1 572.5713 453.5955)" class="st0 st3 st2">…</text>
<text transform="matrix(1 0 0 1 615.5713 453.5955)" class="st0 st1 st2">- said an annoying </text>
<text transform="matrix(1 0 0 1 142.5713 505.1956)" class="st0 st1 st2">voice.</text>
<text transform="matrix(1 0 0 1 142.5713 608.3955)" class="st0 st1 st2">Bicho turned around to find a disgunting rat </text>
<text transform="matrix(1 0 0 1 142.5713 659.9955)" class="st0 st1 st2">licking its paws.</text>
<text transform="matrix(1 0 0 1 142.5713 763.1956)" class="st0 st1 st2">— I</text>
<text transform="matrix(1 0 0 1 185.8713 763.1956)" class="st0 st3 st2">…</text>
<text transform="matrix(1 0 0 1 228.8713 763.1956)" class="st0 st1 st2"> I saw it first, the food</text>
<text transform="matrix(1 0 0 1 588.7713 763.1956)" class="st0 st3 st2">…</text>
<text transform="matrix(1 0 0 1 631.7713 763.1956)" class="st0 st1 st2"> but we could </text>
<text transform="matrix(1 0 0 1 142.5713 814.7955)" class="st0 st1 st2">share, I guess</text>
<text transform="matrix(1 0 0 1 368.5713 814.7955)" class="st0 st3 st2">…</text>
<text transform="matrix(1 0 0 1 411.5713 814.7955)" class="st0 st1 st2"> - he said.</text>
<text transform="matrix(1 0 0 1 142.5713 917.9955)" class="st0 st1 st2">— That rotten meat? -said the rat while</text>
<text transform="matrix(1 0 0 1 142.5713 969.5955)" class="st0 st1 st2"> laughing- You are what I’m having</text>
<text transform="matrix(1 0 0 1 142.5713 1021.1956)" class="st0 st1 st2"> for dinner! - and it jumped over Bicho.</text>
</svg>
